<?xml version="1.0" standalone="no"?>
<!DOCTYPE svg PUBLIC "-//W3C//DTD SVG 20010904//EN"
 "http://www.w3.org/TR/2001/REC-SVG-20010904/DTD/svg10.dtd">
<svg version="1.0" xmlns="http://www.w3.org/2000/svg"
 width="512.000000pt" height="512.000000pt" viewBox="0 0 512.000000 512.000000"
 preserveAspectRatio="xMidYMid meet">
<metadata>
Created by potrace 1.14, written by Peter Selinger 2001-2017
</metadata>
<g transform="translate(0.000000,512.000000) scale(0.100000,-0.100000)"
fill="#000000" stroke="none">
<path d="M2210 4514 c-99 -21 -199 -75 -268 -144 l-60 -61 -43 10 c-171 40
-364 -17 -502 -148 -71 -67 -73 -69 -134 -73 -97 -7 -217 -71 -313 -167 -138
-139 -203 -283 -203 -451 0 -62 6 -110 16 -140 23 -63 22 -76 -17 -134 -18
-28 -49 -81 -67 -118 l-33 -68 -66 0 c-139 0 -248 -47 -355 -155 -82 -82 -118
-144 -145 -251 -61 -238 30 -469 239 -609 38 -25 89 -53 114 -62 l44 -16 13
-71 c6 -39 29 -123 50 -187 157 -475 463 -760 975 -909 274 -79 700 -142 1071
-159 766 -34 1330 123 1691 472 52 50 118 122 146 160 27 37 52 67 54 67 2 0
32 -9 66 -21 51 -18 79 -20 159 -17 84 4 105 9 170 40 452 214 391 873 -94
1024 -52 16 -58 21 -62 48 -3 17 -10 67 -16 111 -16 114 -63 297 -106 411 -43
118 -136 302 -199 398 -52 80 -53 77 43 148 69 52 92 89 92 154 0 87 -61 153
-149 162 -59 5 -108 -15 -191 -82 l-54 -43 -100 89 c-55 50 -135 115 -178 146
l-79 57 7 40 c21 124 -3 341 -47 411 -22 37 -91 74 -135 74 -41 -1 -107 -33
-132 -65 -36 -46 -42 -88 -26 -172 23 -122 29 -117 -88 -71 -118 47 -323 100
-450 118 -83 11 -89 14 -108 44 -62 102 -215 197 -345 216 -88 12 -105 12
-185 -6z m650 -400 c183 -28 351 -81 533 -166 59 -28 107 -57 107 -64 0 -8
-12 -38 -27 -69 -25 -51 -26 -56 -11 -72 22 -22 37 -9 68 59 13 29 25 55 26
56 4 6 147 -93 230 -159 79 -63 244 -224 270 -264 12 -19 10 -29 -21 -91 -37
-73 -42 -117 -12 -122 13 -3 24 13 46 61 16 36 34 68 39 71 17 10 155 -206
221 -344 110 -231 168 -453 187 -707 l7 -93 42 0 c50 0 133 -24 199 -57 147
-75 235 -255 207 -425 -47 -284 -342 -416 -559 -250 -26 19 -48 30 -50 24 -2
-6 -25 -47 -51 -90 -59 -99 -154 -214 -229 -280 -86 -74 -231 -172 -257 -172
-3 0 -5 33 -5 73 0 62 3 77 21 93 27 24 48 65 42 82 -7 19 -41 14 -55 -8 -16
-25 -28 -26 -28 -2 0 10 -9 54 -20 99 l-21 80 35 69 c41 79 69 191 64 255 -2
36 -7 44 -23 44 -16 0 -21 -9 -28 -50 -15 -97 -27 -146 -48 -196 l-22 -49 -63
127 c-35 71 -76 144 -93 163 -28 33 -31 34 -47 18 -15 -15 -14 -20 19 -75 44
-72 124 -238 133 -275 5 -22 -2 -35 -36 -72 -64 -69 -31 -110 35 -46 l32 31
16 -76 c26 -115 24 -122 -24 -135 -42 -12 -59 -34 -40 -53 8 -8 22 -8 50 -1
l39 11 6 -36 c3 -20 6 -51 6 -69 0 -30 -4 -35 -54 -57 -80 -36 -268 -92 -383
-115 -172 -34 -355 -50 -588 -50 -235 0 -369 9 -615 40 -647 82 -985 205
-1226 445 -177 177 -305 449 -345 736 l-13 86 -48 12 c-229 52 -378 258 -347
479 19 132 110 257 226 309 72 32 188 42 248 20 l40 -14 61 127 c51 105 158
290 169 290 2 0 18 -14 36 -32 138 -129 328 -97 511 85 54 53 58 55 58 32 0
-97 130 -154 318 -142 242 16 482 199 470 359 l-3 41 85 58 c114 78 203 168
239 240 33 67 55 157 49 200 l-5 29 56 -6 c31 -3 99 -12 151 -20z"/>
<path d="M2580 3634 c-107 -29 -161 -101 -124 -165 49 -83 213 -111 326 -56
69 34 98 71 98 124 0 52 -28 77 -105 98 -72 18 -123 18 -195 -1z"/>
<path d="M1819 2552 c-87 -44 -204 -125 -218 -150 -5 -10 -19 -80 -30 -156
l-22 -138 21 -44 c26 -54 90 -88 166 -89 130 -1 183 117 200 444 7 129 0 171
-29 171 -7 0 -47 -17 -88 -38z"/>
<path d="M2655 2501 c-27 -53 -67 -279 -68 -391 -2 -95 0 -109 22 -147 34 -60
93 -88 168 -80 103 11 132 48 150 191 23 187 22 194 -46 278 -54 68 -107 118
-170 160 -34 24 -38 23 -56 -11z"/>
<path d="M4543 1926 c-81 -26 -138 -75 -163 -142 -7 -19 -7 -31 1 -40 18 -22
27 -17 61 37 24 40 43 57 82 75 55 26 135 32 182 14 21 -8 31 -8 42 4 24 24 7
43 -48 55 -65 14 -104 13 -157 -3z"/>
<path d="M1904 1609 c-109 -8 -148 -26 -164 -74 -15 -45 2 -84 47 -106 26 -13
44 -14 95 -7 92 14 230 3 331 -27 49 -14 98 -23 111 -19 65 16 90 102 45 150
-54 57 -280 98 -465 83z"/>
</g>
</svg>
